<mxfile host="app.diagrams.net" modified="2021-12-02T02:16:06.602Z" agent="5.0 (Windows NT 10.0; Win64; x64) AppleWebKit/537.36 (KHTML, like Gecko) Chrome/96.0.4664.45 Safari/537.36" etag="G1ZdBFR4yZk7C9F-_Y3R" version="15.8.8" type="github">
  <diagram id="kgpKYQtTHZ0yAKxKKP6v" name="Page-1">
    <mxGraphModel dx="1422" dy="762" grid="1" gridSize="10" guides="1" tooltips="1" connect="1" arrows="1" fold="1" page="1" pageScale="1" pageWidth="850" pageHeight="1100" math="0" shadow="0">
      <root>
        <mxCell id="0" />
        <mxCell id="1" parent="0" />
        <mxCell id="3nuBFxr9cyL0pnOWT2aG-1" value="hallClient" style="shape=umlLifeline;perimeter=lifelinePerimeter;container=1;collapsible=0;recursiveResize=0;rounded=0;shadow=0;strokeWidth=1;" parent="1" vertex="1">
          <mxGeometry x="120" y="80" width="100" height="300" as="geometry" />
        </mxCell>
        <mxCell id="3nuBFxr9cyL0pnOWT2aG-3" value="dispatch" style="verticalAlign=bottom;startArrow=oval;endArrow=block;startSize=8;shadow=0;strokeWidth=1;" parent="3nuBFxr9cyL0pnOWT2aG-1" edge="1">
          <mxGeometry relative="1" as="geometry">
            <mxPoint x="-15" y="70" as="sourcePoint" />
            <mxPoint x="45" y="70" as="targetPoint" />
          </mxGeometry>
        </mxCell>
        <mxCell id="3nuBFxr9cyL0pnOWT2aG-4" value="" style="points=[];perimeter=orthogonalPerimeter;rounded=0;shadow=0;strokeWidth=1;" parent="3nuBFxr9cyL0pnOWT2aG-1" vertex="1">
          <mxGeometry x="45" y="70" width="10" height="50" as="geometry" />
        </mxCell>
        <mxCell id="D1cvWWY6wySRjiaeFIVJ-10" value="" style="html=1;points=[];perimeter=orthogonalPerimeter;fontSize=11;" vertex="1" parent="3nuBFxr9cyL0pnOWT2aG-1">
          <mxGeometry x="45" y="140" width="10" height="80" as="geometry" />
        </mxCell>
        <mxCell id="3nuBFxr9cyL0pnOWT2aG-5" value="login" style="shape=umlLifeline;perimeter=lifelinePerimeter;container=1;collapsible=0;recursiveResize=0;rounded=0;shadow=0;strokeWidth=1;" parent="1" vertex="1">
          <mxGeometry x="300" y="80" width="100" height="300" as="geometry" />
        </mxCell>
        <mxCell id="3nuBFxr9cyL0pnOWT2aG-6" value="" style="points=[];perimeter=orthogonalPerimeter;rounded=0;shadow=0;strokeWidth=1;" parent="3nuBFxr9cyL0pnOWT2aG-5" vertex="1">
          <mxGeometry x="45" y="70" width="10" height="50" as="geometry" />
        </mxCell>
        <mxCell id="D1cvWWY6wySRjiaeFIVJ-11" value="" style="html=1;points=[];perimeter=orthogonalPerimeter;fontSize=11;" vertex="1" parent="3nuBFxr9cyL0pnOWT2aG-5">
          <mxGeometry x="45" y="140" width="10" height="80" as="geometry" />
        </mxCell>
        <mxCell id="D1cvWWY6wySRjiaeFIVJ-1" value="" style="endArrow=classic;html=1;rounded=0;exitX=1.2;exitY=0.2;exitDx=0;exitDy=0;exitPerimeter=0;" edge="1" parent="1" source="3nuBFxr9cyL0pnOWT2aG-4">
          <mxGeometry width="50" height="50" relative="1" as="geometry">
            <mxPoint x="180" y="160" as="sourcePoint" />
            <mxPoint x="350" y="160" as="targetPoint" />
            <Array as="points" />
          </mxGeometry>
        </mxCell>
        <mxCell id="D1cvWWY6wySRjiaeFIVJ-2" value="&lt;div style=&quot;background-color: rgb(255, 255, 255); font-size: 12px;&quot;&gt;loginV3&lt;/div&gt;" style="text;html=1;align=center;verticalAlign=middle;resizable=0;points=[];autosize=1;strokeColor=none;fillColor=none;fontSize=12;fontFamily=Helvetica;" vertex="1" parent="1">
          <mxGeometry x="230" y="130" width="60" height="40" as="geometry" />
        </mxCell>
        <mxCell id="D1cvWWY6wySRjiaeFIVJ-7" value="" style="endArrow=classic;html=1;rounded=0;entryX=1.1;entryY=0.78;entryDx=0;entryDy=0;entryPerimeter=0;" edge="1" parent="1" source="3nuBFxr9cyL0pnOWT2aG-6" target="3nuBFxr9cyL0pnOWT2aG-4">
          <mxGeometry width="50" height="50" relative="1" as="geometry">
            <mxPoint x="550" y="290" as="sourcePoint" />
            <mxPoint x="600" y="240" as="targetPoint" />
          </mxGeometry>
        </mxCell>
        <mxCell id="D1cvWWY6wySRjiaeFIVJ-8" value="&lt;div style=&quot;background-color: rgb(255, 255, 255); font-size: 11px;&quot;&gt;callBackLoginV3&lt;/div&gt;" style="text;html=1;align=center;verticalAlign=middle;resizable=0;points=[];autosize=1;strokeColor=none;fillColor=none;fontSize=11;fontFamily=Helvetica;" vertex="1" parent="1">
          <mxGeometry x="205" y="160" width="110" height="40" as="geometry" />
        </mxCell>
        <mxCell id="D1cvWWY6wySRjiaeFIVJ-12" value="" style="endArrow=classic;html=1;rounded=0;fontSize=11;entryX=0.2;entryY=0.213;entryDx=0;entryDy=0;entryPerimeter=0;" edge="1" parent="1" source="D1cvWWY6wySRjiaeFIVJ-10" target="D1cvWWY6wySRjiaeFIVJ-11">
          <mxGeometry width="50" height="50" relative="1" as="geometry">
            <mxPoint x="190" y="280" as="sourcePoint" />
            <mxPoint x="240" y="230" as="targetPoint" />
          </mxGeometry>
        </mxCell>
        <mxCell id="D1cvWWY6wySRjiaeFIVJ-13" value="&lt;div style=&quot;font-size: 12px;&quot;&gt;getUserDataByLogin&lt;/div&gt;" style="text;html=1;align=center;verticalAlign=middle;resizable=0;points=[];autosize=1;strokeColor=none;fillColor=none;fontSize=12;fontFamily=Helvetica;labelBackgroundColor=none;" vertex="1" parent="1">
          <mxGeometry x="195" y="220" width="130" height="20" as="geometry" />
        </mxCell>
        <mxCell id="D1cvWWY6wySRjiaeFIVJ-14" value="" style="endArrow=classic;html=1;rounded=0;fontFamily=Helvetica;fontSize=12;exitX=-0.3;exitY=0.825;exitDx=0;exitDy=0;exitPerimeter=0;" edge="1" parent="1" source="D1cvWWY6wySRjiaeFIVJ-11" target="D1cvWWY6wySRjiaeFIVJ-10">
          <mxGeometry width="50" height="50" relative="1" as="geometry">
            <mxPoint x="520" y="300" as="sourcePoint" />
            <mxPoint x="570" y="250" as="targetPoint" />
          </mxGeometry>
        </mxCell>
        <mxCell id="D1cvWWY6wySRjiaeFIVJ-15" value="&lt;div style=&quot;font-size: 11px;&quot;&gt;&lt;span style=&quot;font-size: 11px;&quot;&gt;callBackGetUserDataByLogin&lt;/span&gt;&lt;/div&gt;" style="text;html=1;align=center;verticalAlign=middle;resizable=0;points=[];autosize=1;strokeColor=none;fillColor=none;fontSize=11;fontFamily=Helvetica;fontColor=default;labelBackgroundColor=none;fontStyle=0" vertex="1" parent="1">
          <mxGeometry x="175" y="265" width="170" height="20" as="geometry" />
        </mxCell>
        <mxCell id="D1cvWWY6wySRjiaeFIVJ-16" value="hallClient" style="shape=umlLifeline;perimeter=lifelinePerimeter;container=1;collapsible=0;recursiveResize=0;rounded=0;shadow=0;strokeWidth=1;" vertex="1" parent="1">
          <mxGeometry x="130" y="520" width="100" height="350" as="geometry" />
        </mxCell>
        <mxCell id="D1cvWWY6wySRjiaeFIVJ-17" value="dispatch" style="verticalAlign=bottom;startArrow=oval;endArrow=block;startSize=8;shadow=0;strokeWidth=1;" edge="1" parent="D1cvWWY6wySRjiaeFIVJ-16">
          <mxGeometry relative="1" as="geometry">
            <mxPoint x="-15" y="70" as="sourcePoint" />
            <mxPoint x="45" y="70" as="targetPoint" />
          </mxGeometry>
        </mxCell>
        <mxCell id="D1cvWWY6wySRjiaeFIVJ-18" value="" style="points=[];perimeter=orthogonalPerimeter;rounded=0;shadow=0;strokeWidth=1;" vertex="1" parent="D1cvWWY6wySRjiaeFIVJ-16">
          <mxGeometry x="45" y="70" width="10" height="50" as="geometry" />
        </mxCell>
        <mxCell id="D1cvWWY6wySRjiaeFIVJ-20" value="login" style="shape=umlLifeline;perimeter=lifelinePerimeter;container=1;collapsible=0;recursiveResize=0;rounded=0;shadow=0;strokeWidth=1;" vertex="1" parent="1">
          <mxGeometry x="420" y="520" width="100" height="350" as="geometry" />
        </mxCell>
        <mxCell id="D1cvWWY6wySRjiaeFIVJ-21" value="" style="points=[];perimeter=orthogonalPerimeter;rounded=0;shadow=0;strokeWidth=1;" vertex="1" parent="D1cvWWY6wySRjiaeFIVJ-20">
          <mxGeometry x="45" y="70" width="10" height="50" as="geometry" />
        </mxCell>
        <mxCell id="D1cvWWY6wySRjiaeFIVJ-34" value="" style="points=[];perimeter=orthogonalPerimeter;rounded=0;shadow=0;strokeWidth=1;" vertex="1" parent="D1cvWWY6wySRjiaeFIVJ-20">
          <mxGeometry x="45" y="140" width="10" height="50" as="geometry" />
        </mxCell>
        <mxCell id="D1cvWWY6wySRjiaeFIVJ-35" value="" style="html=1;points=[];perimeter=orthogonalPerimeter;fontSize=11;" vertex="1" parent="D1cvWWY6wySRjiaeFIVJ-20">
          <mxGeometry x="45" y="200" width="10" height="80" as="geometry" />
        </mxCell>
        <mxCell id="D1cvWWY6wySRjiaeFIVJ-23" value="" style="endArrow=classic;html=1;rounded=0;exitX=1.2;exitY=0.2;exitDx=0;exitDy=0;exitPerimeter=0;" edge="1" parent="1" source="D1cvWWY6wySRjiaeFIVJ-18" target="D1cvWWY6wySRjiaeFIVJ-20">
          <mxGeometry width="50" height="50" relative="1" as="geometry">
            <mxPoint x="190" y="600" as="sourcePoint" />
            <mxPoint x="360" y="600" as="targetPoint" />
            <Array as="points" />
          </mxGeometry>
        </mxCell>
        <mxCell id="D1cvWWY6wySRjiaeFIVJ-24" value="&lt;div style=&quot;background-color: rgb(255, 255, 255); font-size: 11px;&quot;&gt;&lt;div style=&quot;font-size: 11px;&quot;&gt;createCharacterWithoutLogin&lt;/div&gt;&lt;/div&gt;" style="text;html=1;align=center;verticalAlign=middle;resizable=0;points=[];autosize=1;strokeColor=none;fillColor=none;fontSize=11;fontFamily=Helvetica;" vertex="1" parent="1">
          <mxGeometry x="240" y="570" width="180" height="40" as="geometry" />
        </mxCell>
        <mxCell id="D1cvWWY6wySRjiaeFIVJ-25" value="" style="endArrow=classic;html=1;rounded=0;entryX=1.1;entryY=0.78;entryDx=0;entryDy=0;entryPerimeter=0;" edge="1" parent="1" source="D1cvWWY6wySRjiaeFIVJ-21" target="D1cvWWY6wySRjiaeFIVJ-18">
          <mxGeometry width="50" height="50" relative="1" as="geometry">
            <mxPoint x="560" y="730" as="sourcePoint" />
            <mxPoint x="610" y="680" as="targetPoint" />
          </mxGeometry>
        </mxCell>
        <mxCell id="D1cvWWY6wySRjiaeFIVJ-26" value="&lt;div style=&quot;font-size: 10px;&quot;&gt;&lt;div style=&quot;font-size: 10px;&quot;&gt;callbackCreateCharacterWithoutLogin&lt;/div&gt;&lt;/div&gt;" style="text;html=1;align=center;verticalAlign=middle;resizable=0;points=[];autosize=1;strokeColor=none;fillColor=none;fontSize=10;fontFamily=Helvetica;fontStyle=0;labelBackgroundColor=none;" vertex="1" parent="1">
          <mxGeometry x="220" y="610" width="220" height="20" as="geometry" />
        </mxCell>
        <mxCell id="D1cvWWY6wySRjiaeFIVJ-32" value="" style="points=[];perimeter=orthogonalPerimeter;rounded=0;shadow=0;strokeWidth=1;" vertex="1" parent="1">
          <mxGeometry x="175" y="660" width="10" height="50" as="geometry" />
        </mxCell>
        <mxCell id="D1cvWWY6wySRjiaeFIVJ-33" value="" style="html=1;points=[];perimeter=orthogonalPerimeter;fontSize=11;" vertex="1" parent="1">
          <mxGeometry x="175" y="730" width="10" height="80" as="geometry" />
        </mxCell>
        <mxCell id="D1cvWWY6wySRjiaeFIVJ-36" value="" style="endArrow=classic;html=1;rounded=0;exitX=1.2;exitY=0.2;exitDx=0;exitDy=0;exitPerimeter=0;" edge="1" parent="1" source="D1cvWWY6wySRjiaeFIVJ-32" target="D1cvWWY6wySRjiaeFIVJ-20">
          <mxGeometry width="50" height="50" relative="1" as="geometry">
            <mxPoint x="190" y="670" as="sourcePoint" />
            <mxPoint x="360" y="670" as="targetPoint" />
            <Array as="points" />
          </mxGeometry>
        </mxCell>
        <mxCell id="D1cvWWY6wySRjiaeFIVJ-37" value="" style="endArrow=classic;html=1;rounded=0;entryX=1.1;entryY=0.78;entryDx=0;entryDy=0;entryPerimeter=0;" edge="1" parent="1" source="D1cvWWY6wySRjiaeFIVJ-34" target="D1cvWWY6wySRjiaeFIVJ-32">
          <mxGeometry width="50" height="50" relative="1" as="geometry">
            <mxPoint x="560" y="800" as="sourcePoint" />
            <mxPoint x="610" y="750" as="targetPoint" />
          </mxGeometry>
        </mxCell>
        <mxCell id="D1cvWWY6wySRjiaeFIVJ-38" value="&lt;div style=&quot;background-color: rgb(255, 255, 255); font-size: 11px;&quot;&gt;callBackLoginV3&lt;/div&gt;" style="text;html=1;align=center;verticalAlign=middle;resizable=0;points=[];autosize=1;strokeColor=none;fillColor=none;fontSize=11;fontFamily=Helvetica;" vertex="1" parent="1">
          <mxGeometry x="275" y="670" width="110" height="40" as="geometry" />
        </mxCell>
        <mxCell id="D1cvWWY6wySRjiaeFIVJ-39" value="" style="endArrow=classic;html=1;rounded=0;fontSize=11;entryX=0.2;entryY=0.213;entryDx=0;entryDy=0;entryPerimeter=0;" edge="1" parent="1" source="D1cvWWY6wySRjiaeFIVJ-33" target="D1cvWWY6wySRjiaeFIVJ-35">
          <mxGeometry width="50" height="50" relative="1" as="geometry">
            <mxPoint x="200" y="790" as="sourcePoint" />
            <mxPoint x="250" y="740" as="targetPoint" />
          </mxGeometry>
        </mxCell>
        <mxCell id="D1cvWWY6wySRjiaeFIVJ-40" value="&lt;div style=&quot;font-size: 12px;&quot;&gt;getUserDataByLogin&lt;/div&gt;" style="text;html=1;align=center;verticalAlign=middle;resizable=0;points=[];autosize=1;strokeColor=none;fillColor=none;fontSize=12;fontFamily=Helvetica;labelBackgroundColor=none;" vertex="1" parent="1">
          <mxGeometry x="265" y="720" width="130" height="20" as="geometry" />
        </mxCell>
        <mxCell id="D1cvWWY6wySRjiaeFIVJ-41" value="" style="endArrow=classic;html=1;rounded=0;fontFamily=Helvetica;fontSize=12;exitX=-0.3;exitY=0.825;exitDx=0;exitDy=0;exitPerimeter=0;" edge="1" parent="1" source="D1cvWWY6wySRjiaeFIVJ-35" target="D1cvWWY6wySRjiaeFIVJ-33">
          <mxGeometry width="50" height="50" relative="1" as="geometry">
            <mxPoint x="530" y="810" as="sourcePoint" />
            <mxPoint x="580" y="760" as="targetPoint" />
          </mxGeometry>
        </mxCell>
        <mxCell id="D1cvWWY6wySRjiaeFIVJ-42" value="&lt;div style=&quot;font-size: 11px;&quot;&gt;&lt;span style=&quot;font-size: 11px;&quot;&gt;callBackGetUserDataByLogin&lt;/span&gt;&lt;/div&gt;" style="text;html=1;align=center;verticalAlign=middle;resizable=0;points=[];autosize=1;strokeColor=none;fillColor=none;fontSize=11;fontFamily=Helvetica;fontColor=default;labelBackgroundColor=none;fontStyle=0" vertex="1" parent="1">
          <mxGeometry x="245" y="770" width="170" height="20" as="geometry" />
        </mxCell>
        <mxCell id="D1cvWWY6wySRjiaeFIVJ-44" value="&lt;div style=&quot;background-color: rgb(255, 255, 255); font-size: 12px;&quot;&gt;loginV3&lt;/div&gt;" style="text;html=1;align=center;verticalAlign=middle;resizable=0;points=[];autosize=1;strokeColor=none;fillColor=none;fontSize=12;fontFamily=Helvetica;" vertex="1" parent="1">
          <mxGeometry x="300" y="640" width="60" height="40" as="geometry" />
        </mxCell>
      </root>
    </mxGraphModel>
  </diagram>
</mxfile>
